<svg width="88" height="20" viewBox="0 0 88 20" fill="none" xmlns="http://www.w3.org/2000/svg">
<path d="M27.7251 12.5486C26.1554 12.5486 25.4492 11.7645 25.4492 10.7451L25.528 10.6671H26.4697L26.5478 10.7451C26.5478 11.2938 26.8615 11.6078 27.8039 11.6078C28.5081 11.6078 28.9025 11.3725 28.9025 10.9043C28.9025 10.3556 28.5881 10.2008 27.4896 10.0422C26.391 9.8836 25.528 9.49348 25.528 8.39601C25.528 7.61192 26.1554 6.9065 27.6464 6.9065C29.1374 6.9065 29.7655 7.61 29.7655 8.5527L29.6874 8.63072H28.745L28.6669 8.5527C28.6669 8.08199 28.4313 7.8492 27.5683 7.8492C26.8641 7.8492 26.6266 8.08455 26.6266 8.39857C26.6266 8.86864 26.9403 9.02533 28.0388 9.18266C29.1374 9.33999 30.0011 9.80941 30.0011 10.9094C30.0011 11.7722 29.373 12.5563 27.7251 12.5563V12.5486Z" fill="white"/>
<path d="M35.3397 12.4699L35.2616 12.3913L34.8691 11.3725L34.7116 11.2938H32.7482L32.5913 11.3725L32.1989 12.3913L32.1201 12.4699H31.4159L31.3372 12.3913V11.6078L33.1425 7.06063L33.2206 6.98196H34.2411L34.3198 7.06063L36.1252 11.6078V12.3913L36.0465 12.4699H35.3397ZM33.6924 8.39665L32.9882 10.2782L33.067 10.3562H34.3967L34.4754 10.2782L33.7712 8.39665H33.6924Z" fill="white"/>
<path d="M41.3813 7.92274H39.8115L39.7327 8.00141V12.3913L39.6546 12.4699H38.7129L38.6342 12.3913V8.00141L38.5561 7.92274H36.9863L36.9082 7.84408V7.06063L36.9863 6.98196H41.3813L41.4594 7.06063V7.84408L41.3813 7.92274Z" fill="white"/>
<path d="M45.3838 12.5486C43.7359 12.5486 42.7154 11.3725 42.7154 9.72563C42.7154 8.07879 43.7359 6.90394 45.3838 6.90394C47.0317 6.90394 48.0521 8.07943 48.0521 9.72563C48.0521 11.3718 47.0317 12.5486 45.3838 12.5486ZM45.3838 7.84408C44.3639 7.84408 43.814 8.62817 43.814 9.72563C43.814 10.8231 44.3639 11.6078 45.3838 11.6078C46.4036 11.6078 46.9536 10.8237 46.9536 9.72563C46.9536 8.62753 46.4043 7.84408 45.3838 7.84408Z" fill="white"/>
<path d="M51.8978 12.5486C50.3287 12.5486 49.6219 11.7645 49.6219 10.7451L49.7007 10.6671H50.6424L50.7211 10.7451C50.7211 11.2938 51.0348 11.6078 51.9766 11.6078C52.6808 11.6078 53.0751 11.3725 53.0751 10.9043C53.0751 10.3556 52.7615 10.2008 51.6622 10.0422C50.563 9.8836 49.7007 9.49348 49.7007 8.39601C49.7007 7.61192 50.3287 6.9065 51.8197 6.9065C53.3107 6.9065 53.9381 7.61 53.9381 8.5527L53.86 8.63072H52.9183L52.8396 8.5527C52.8396 8.08199 52.6046 7.8492 51.741 7.8492C51.0368 7.8492 50.7992 8.08455 50.7992 8.39857C50.7992 8.86864 51.1129 9.02533 52.2122 9.18266C53.3114 9.33999 54.1737 9.80941 54.1737 10.9094C54.1737 11.7722 53.5463 12.5563 51.8978 12.5563V12.5486Z" fill="white"/>
<path d="M60.4528 12.4699H59.5104L59.4323 12.3913V10.1963L59.3536 10.1177H57.2345L57.1564 10.1963V12.3913L57.0777 12.4699H56.1359L56.0578 12.3913V7.06063L56.1359 6.98196H57.0777L57.1564 7.06063V9.09887L57.2345 9.1769H59.3536L59.4323 9.09887V7.06063L59.5104 6.98196H60.4528L60.5309 7.06063V12.3913L60.4528 12.4699Z" fill="white"/>
<path d="M63.7492 12.4699H62.8075L62.7287 12.3913V7.06063L62.8075 6.98196H63.7492L63.8273 7.06063V12.3913L63.7492 12.4699Z" fill="white"/>
<path d="M69.6352 12.4699H66.1032L66.0251 12.3913V7.06063L66.1032 6.98196H67.045L67.1237 7.06063V11.4505L67.2018 11.5292H69.6352L69.7133 11.6078V12.3913L69.6352 12.4699Z" fill="white"/>
<path d="M75.0526 12.4699L74.9745 12.3913L74.582 11.3725L74.4252 11.2938H72.463L72.3061 11.3725L71.9124 12.3913L71.8336 12.4699H71.1294L71.0513 12.3913V11.6078L72.856 7.06063L72.9348 6.98196H73.9546L74.0334 7.06063L75.8381 11.6078V12.3913L75.76 12.4699H75.0526ZM73.4021 8.39665L72.6979 10.2782L72.776 10.3562H74.1102L74.1889 10.2782L73.4847 8.39665H73.4021Z" fill="white"/>
<path d="M80.3086 12.4699H77.6403L77.5615 12.3913V7.06063L77.6403 6.98196H80.1518C80.9366 6.98196 81.7209 7.37401 81.7209 8.39345C81.7209 8.94218 81.4859 9.41225 80.9366 9.56894V9.64761C81.564 9.8043 81.8784 10.275 81.8784 10.9804C81.8784 12.0779 81.0935 12.4699 80.3086 12.4699ZM79.9949 7.92274H78.7389L78.6607 8.00141V9.10015L78.7389 9.17882H79.9949C80.4655 9.17882 80.6223 8.8648 80.6223 8.55142C80.6223 8.15938 80.4655 7.92402 79.9949 7.92402V7.92274ZM79.9949 10.1177H78.7389L78.6607 10.1963V11.4505L78.7389 11.5292H79.9949C80.5442 11.5292 80.7798 11.2938 80.7798 10.8257C80.7798 10.3575 80.5442 10.1222 79.9949 10.1222V10.1177Z" fill="white"/>
<path d="M85.7241 12.5486C84.1543 12.5486 83.4482 11.7645 83.4482 10.7451L83.5263 10.6671H84.4686L84.5468 10.7451C84.5468 11.2938 84.8611 11.6078 85.8022 11.6078C86.5064 11.6078 86.9014 11.3725 86.9014 10.9043C86.9014 10.3556 86.5871 10.2008 85.4885 10.0422C84.3899 9.8836 83.5263 9.49348 83.5263 8.39601C83.5263 7.61192 84.1543 6.9065 85.6453 6.9065C87.1363 6.9065 87.7644 7.61 87.7644 8.5527L87.6857 8.63072H86.7446L86.6658 8.5527C86.6658 8.08199 86.4302 7.8492 85.5672 7.8492C84.863 7.8492 84.6255 8.08455 84.6255 8.39857C84.6255 8.86864 84.9392 9.02533 86.0378 9.18266C87.1364 9.33999 88 9.80941 88 10.9094C88 11.7722 87.372 12.5563 85.7241 12.5563L85.7241 12.5486Z" fill="white"/>
<path d="M10.2362 5.1439L10.1574 5.06523H7.61838L7.54092 5.14198V13.6454L7.46281 13.7235H5.99419L5.92057 13.797V14.7167L6.00123 14.7966H8.54091L8.61581 14.7224V6.21067L8.68816 6.1384H10.1619L10.2362 6.06421V5.1439Z" fill="white"/>
<path d="M11.3892 5.06523H12.3085L12.3853 5.14198V13.6454L12.4634 13.7235H13.932L14.0063 13.797V14.7167L13.9256 14.7966H11.386L11.3111 14.7224V5.14326L11.3892 5.06523Z" fill="white"/>
<path d="M10.0095 20C4.49036 20 0 15.5142 0 10C0 4.4858 4.49036 0 10.0095 0C15.5287 0 20.0197 4.48644 20.0197 10C20.0197 15.5136 15.5293 20 10.0095 20ZM10.0095 1.07253C5.07999 1.07253 1.07298 5.07739 1.07298 10C1.07298 14.9226 5.08191 18.9275 10.0095 18.9275C14.9371 18.9275 18.9461 14.9201 18.9461 10C18.9461 5.07994 14.9346 1.07253 10.0095 1.07253Z" fill="white"/>
</svg>
