<svg width="71" height="18" viewBox="0 0 71 18" fill="none" xmlns="http://www.w3.org/2000/svg">
<path d="M10.6679 4.17694C10.6679 1.89399 8.67311 0 6.24467 0C3.8158 0 1.82056 1.89488 1.82056 4.1765V5.51201H0V15.1144L6.24335 18L12.4902 15.1153V5.55439H10.6697L10.6683 4.1765L10.6679 4.17694ZM4.07563 4.17694C4.07563 3.10059 5.03023 2.23924 6.24467 2.23924C7.45911 2.23924 8.41284 3.10059 8.41284 4.17694V5.51201H4.07607L4.07563 4.17694ZM9.97444 13.5648L6.24292 15.2884L2.5127 13.5661V7.79451H9.97401L9.97444 13.5648Z" fill="white"/>
<path d="M17.5643 5.51201H25.4145V7.79451H22.7254V15.1577H20.21V7.79451H17.5643V5.51201ZM34.4361 8.74151C34.4361 6.80336 33.0913 5.55483 31.0965 5.55483H26.542V15.1572H29.0578V11.9282H30.012L31.79 15.1572H34.6986L32.5734 11.5838C33.4819 11.2395 34.4361 10.3344 34.4361 8.74151ZM30.795 9.68894H29.0578V7.7508H30.7928C31.4432 7.7508 31.8769 8.13887 31.8769 8.69868C31.8769 9.30132 31.4432 9.68894 30.7928 9.68894H30.795ZM35.6067 5.51201H42.633V7.75124H38.122V9.1724H42.5031V11.3684H38.122V12.918H42.633V15.1577H35.6067V5.51201ZM56.7287 5.38221C53.7798 5.38221 51.6989 7.49253 51.6989 10.3348C51.6989 13.1767 53.8228 15.2884 56.7287 15.2884C59.6347 15.2884 61.8033 13.1785 61.8033 10.3362C61.8033 7.49386 59.6781 5.38265 56.7287 5.38265V5.38221ZM56.7287 13.0478C55.2545 13.0478 54.2564 11.9282 54.2564 10.3371C54.2564 8.70045 55.2545 7.62542 56.7287 7.62542C58.2034 7.62542 59.2445 8.74548 59.2445 10.3366C59.2445 11.9282 58.2034 13.0474 56.7287 13.0474V13.0478ZM68.8731 11.5838C69.7834 11.2395 70.7384 10.3344 70.7384 8.74151C70.7384 6.80336 69.3936 5.55483 67.3984 5.55483H62.8448V15.1572H65.3601V11.9282H66.3161L68.094 15.1572H71L68.8731 11.5838ZM67.0947 9.68894H65.3601V7.7508H67.0947C67.746 7.7508 68.1792 8.13887 68.1792 8.69868C68.1792 9.30132 67.746 9.68894 67.0947 9.68894ZM43.8474 5.51201H51.264V7.44971L47.2305 12.8756H51.264V15.1577H43.8474V13.2195L47.8809 7.79451H43.8474V5.51201Z" fill="white"/>
</svg>
